<mxfile host="app.diagrams.net" modified="2021-04-23T06:38:49.283Z" agent="5.0 (Windows NT 10.0; WOW64) AppleWebKit/537.36 (KHTML, like Gecko) Chrome/86.0.4240.198 Safari/537.36" etag="7uL0kUP0fHUU42aNStMC" version="14.6.5" type="github">
  <diagram id="A3jyafPTiXYTcF0T_oot" name="Page-1">
    <mxGraphModel dx="1376" dy="725" grid="1" gridSize="10" guides="1" tooltips="1" connect="1" arrows="1" fold="1" page="1" pageScale="1" pageWidth="827" pageHeight="1169" math="0" shadow="0">
      <root>
        <mxCell id="0" />
        <mxCell id="1" parent="0" />
        <mxCell id="4bB9MgV0yX663oZKK7qT-3" value="" style="edgeStyle=orthogonalEdgeStyle;rounded=0;orthogonalLoop=1;jettySize=auto;html=1;entryX=0;entryY=0.5;entryDx=0;entryDy=0;" edge="1" parent="1" source="4bB9MgV0yX663oZKK7qT-1" target="4bB9MgV0yX663oZKK7qT-4">
          <mxGeometry relative="1" as="geometry">
            <mxPoint x="430" y="250" as="targetPoint" />
          </mxGeometry>
        </mxCell>
        <mxCell id="4bB9MgV0yX663oZKK7qT-7" value="YES" style="edgeLabel;html=1;align=center;verticalAlign=middle;resizable=0;points=[];" vertex="1" connectable="0" parent="4bB9MgV0yX663oZKK7qT-3">
          <mxGeometry x="-0.2" y="2" relative="1" as="geometry">
            <mxPoint x="10" y="2" as="offset" />
          </mxGeometry>
        </mxCell>
        <mxCell id="4bB9MgV0yX663oZKK7qT-8" value="" style="edgeStyle=orthogonalEdgeStyle;rounded=0;orthogonalLoop=1;jettySize=auto;html=1;" edge="1" parent="1" source="4bB9MgV0yX663oZKK7qT-1" target="4bB9MgV0yX663oZKK7qT-6">
          <mxGeometry relative="1" as="geometry" />
        </mxCell>
        <mxCell id="4bB9MgV0yX663oZKK7qT-9" value="NO" style="edgeLabel;html=1;align=center;verticalAlign=middle;resizable=0;points=[];" vertex="1" connectable="0" parent="4bB9MgV0yX663oZKK7qT-8">
          <mxGeometry x="-0.26" relative="1" as="geometry">
            <mxPoint y="3" as="offset" />
          </mxGeometry>
        </mxCell>
        <mxCell id="4bB9MgV0yX663oZKK7qT-1" value="[BX]&amp;gt;10" style="rhombus;whiteSpace=wrap;html=1;" vertex="1" parent="1">
          <mxGeometry x="150" y="210" width="130" height="80" as="geometry" />
        </mxCell>
        <mxCell id="4bB9MgV0yX663oZKK7qT-5" style="edgeStyle=orthogonalEdgeStyle;rounded=0;orthogonalLoop=1;jettySize=auto;html=1;entryX=0.5;entryY=0;entryDx=0;entryDy=0;" edge="1" parent="1" source="4bB9MgV0yX663oZKK7qT-4" target="4bB9MgV0yX663oZKK7qT-1">
          <mxGeometry relative="1" as="geometry">
            <Array as="points">
              <mxPoint x="450" y="190" />
              <mxPoint x="215" y="190" />
            </Array>
          </mxGeometry>
        </mxCell>
        <mxCell id="4bB9MgV0yX663oZKK7qT-4" value="[BX]-10&lt;br&gt;[BX+7]+1" style="rounded=1;whiteSpace=wrap;html=1;" vertex="1" parent="1">
          <mxGeometry x="390" y="220" width="120" height="60" as="geometry" />
        </mxCell>
        <mxCell id="4bB9MgV0yX663oZKK7qT-6" value="[BX]-&amp;gt;AH&lt;br&gt;AH-&amp;gt;[BX+8]" style="rounded=1;whiteSpace=wrap;html=1;" vertex="1" parent="1">
          <mxGeometry x="155" y="330" width="120" height="60" as="geometry" />
        </mxCell>
      </root>
    </mxGraphModel>
  </diagram>
</mxfile>
